<?xml version="1.0" encoding="UTF-8"?>
<svg id="Layer_1" data-name="Layer 1" xmlns="http://www.w3.org/2000/svg" viewBox="0 0 1399 879.39">
  <path d="M626.74,514.08c-7.6,0-14.16,2.75-19.53,8.26-5.37,5.51-8.13,12.97-8.13,22.54s2.75,16.65,8.13,22.54c5.37,5.9,11.93,8.78,19.66,8.78l.13,.13c7.6,0,14.16-2.88,19.53-8.78,5.37-5.9,8.13-13.37,8.13-22.54s-2.75-17.17-8.26-22.67c-5.5-5.5-12.06-8.26-19.66-8.26Zm-13.25-118.17h-.75l-9.46,26.89h19.92l-9.71-26.89Zm117.99,138.61c2.62-1.97,3.93-4.85,3.93-8.65,0-4.33-1.31-7.6-4.06-9.7-2.75-2.1-6.29-3.15-10.62-3.15h-12.06v24.38l12.97,.13c3.93,0,7.21-1.05,9.83-3.01Zm-303.13-114.34c-5.8,0-10.44,1.69-13.92,5.06s-5.27,7.48-5.27,12.23,1.79,8.86,5.27,12.23c3.48,3.37,8.12,5.06,13.92,5.06s10.43-1.69,14.02-5.06c3.58-3.37,5.38-7.48,5.38-12.44l.11,.42c0-4.95-1.79-9.06-5.38-12.44-3.58-3.37-8.33-5.06-14.12-5.06Zm308.11,134.13c-2.88-2.1-7.08-3.14-12.45-3.14h-15.2v25.82l14.81-.13c5.37,0,9.57-1.18,12.58-3.41,3.02-2.23,4.59-5.51,4.59-9.83,0-4.06-1.44-7.21-4.32-9.31ZM460.32,261.69c-7.6,0-14.15,2.75-19.53,8.26-5.37,5.51-8.13,12.97-8.13,22.54s2.75,16.64,8.13,22.54c5.38,5.9,11.93,8.78,19.66,8.78l.13,.13c7.6,0,14.15-2.88,19.53-8.78,5.37-5.9,8.13-13.37,8.13-22.54s-2.75-17.17-8.26-22.67c-5.51-5.51-12.06-8.26-19.66-8.26Zm933.32,573.39l-8.35-32.35-1.44-125.66-23.94-33.66-49.62-72.16-53.31-23.35-21.9-59.73-51.29-28.17-17.36-53.92-88.3-92.64-62.57-31.88-55.28-55.71-25.23-76.13-76-101.7-1.62-48.02H0L22.09,90.04l92.65,65.43,115.94,156.68,83.09,65.7,13.58,86.42-23.26,70.19,103.31,83.4,41.29,.72,24.56,4.17,63.45,102.97-7.14,101.73,140.37-16.47,122.35,68.41,4.92-2.6-14.48-55.55,23.44-40.81,145.07-62.21,77.5-30.33,115.9,29.05,23.81,12.16,67.52,43.62,56.63,30.78,63.71,42.26,42.69-.46-5.36-10.22Zm-426.72-386.25h10.33v-60.52h-10.33v-14.44h37.6v14.44h-10.33v60.52h10.33v14.44h-37.6v-14.44Zm-160.65-203.4h40.5v15.2h-9.17l15.47,27.26h.65l15.21-27.26h-9.7v-15.2h40.23v15.2h-10.75l-12.58,19.66-10.48,16.64c-2.49,3.93-3.8,6.03-3.93,6.16v21.23h11.27v15.2h-40.5v-15.2h11.14v-21.23c-.13-.13-1.44-2.23-3.8-6.16l-10.22-16.51-12.58-19.79h-10.75v-15.2Zm-11.46,142.88v-14.44h37.48v14.44h-10.21v60.52h28.64v-13.7h16.06v28.14h-71.97v-14.44h10.33v-60.52h-10.33Zm-80.57-142.88h84.93v29.88h-16.78v-14.68h-16.51v63.7h10.62v15.2h-39.32v-15.2h10.88v-63.7h-16.91v14.68h-16.91v-29.88h0Zm-10.18,203.27v14.44h-37.6v-14.44h10.33v-60.14h-10.33v-14.82h26.77l29.76,46.82c1.12,1.74,2.24,3.73,3.36,5.98,1.12,2.24,1.99,3.98,2.61,5.35l.87,1.99h.37v-45.57h-10.33v-14.44h37.73v14.44h-10.46v74.96l-17.43-.25-30.63-47.81c-.87-1.24-1.74-2.61-2.61-4.23-.87-1.62-1.49-2.86-1.87-3.86l-.62-1.37h-.25v42.96h10.34Zm-94.04-124.5h10.88v-63.3h-10.88v-15.6h28.18l31.32,49.28c1.18,1.83,2.36,3.93,3.54,6.29,1.18,2.36,2.1,4.19,2.75,5.64l.92,2.1h.39v-47.97h-10.88v-15.2h39.71v15.2h-11.01v78.9l-18.35-.26-32.24-50.33c-.91-1.31-1.83-2.75-2.75-4.45-.91-1.71-1.57-3.02-1.97-4.06l-.66-1.44h-.26v45.21h10.88v15.2h-39.58v-15.21h0Zm-102.38-78.64h39.71v15.2h-11.01v44.17c0,5.51,1.44,9.96,4.33,13.5,2.88,3.54,7.73,5.24,14.55,5.24,6.03,0,10.62-1.71,13.77-5.11,3.14-3.4,4.72-7.73,4.72-12.97l-.39-44.69h-10.88v-15.2h39.71v15.2h-11.01v43.77c0,11.67-3.28,20.58-9.7,26.74-6.42,6.16-15.2,9.17-26.34,9.17s-20.18-3.15-26.74-9.31c-6.55-6.16-9.83-15.07-9.83-26.74v-43.78h-10.88v-15.2Zm-178.93,82.05c-8.91-8.78-13.37-20.58-13.37-35.39,0-7.47,1.31-14.29,3.8-20.45,2.49-6.16,5.9-11.14,10.09-14.94,4.2-3.8,9.04-6.82,14.42-8.91,5.37-2.1,11.01-3.15,16.91-3.15,12.06,0,20.84,3.8,26.21,11.53l-.26-10.75h15.99v34.86h-17.95v-3.02c0-3.41-2.1-6.95-6.42-10.48-4.33-3.54-9.7-5.37-16.12-5.37-7.73,0-14.15,2.75-19.4,8.13-5.24,5.37-7.87,12.97-7.87,22.67s2.88,17.17,8.52,22.81c5.64,5.64,12.32,8.39,19.92,8.39,12.98,0,22.81-6.03,29.49-17.96l12.84,9.17c-8.39,17.43-22.94,26.08-43.77,26.08-13.11,0-24.12-4.46-33.03-13.24Zm54.2,70.15c-3.06-2.95-4.64-7.17-4.64-12.54,0-.95,.11-1.9,.21-2.74,.11-.84,.32-1.69,.63-2.42,.32-.74,.63-1.37,.95-2s.63-1.16,1.06-1.69l.95-1.26c.21-.32,.53-.63,.85-.95l.52-.52,5.27,4c-1.9,1.9-2.85,4.11-2.85,6.75,0,2.85,.84,5.06,2.63,6.64s4.43,2.32,7.91,2.32h6.43v-14.76h7.06v14.76h37.73v-10.54h7.06l-.11,26.56h-7.06v-7.17h-37.74v7.38h-7.06v-7.38h-6.54c-5.8,0-10.22-1.47-13.28-4.43Zm72.21,39.5c0,7.69-2.43,14.02-7.27,18.97-4.85,4.95-11.38,7.38-19.5,7.38s-14.55-2.53-19.29-7.49c-4.74-4.95-7.17-11.17-7.17-18.66s2.43-13.7,7.27-18.65c4.85-4.96,11.28-7.49,19.29-7.49s14.65,2.42,19.61,7.38c4.95,4.95,7.38,11.28,7.38,18.97l-.32-.42Zm5.32-96.67c-13.37,0-24.51-4.59-33.42-13.63-8.91-9.04-13.37-20.71-13.37-34.86,0-7.47,1.31-14.29,3.93-20.45,2.62-6.16,6.16-11.14,10.62-14.94,4.45-3.8,9.44-6.82,14.94-8.91,5.51-2.1,11.27-3.15,17.17-3.15s11.67,1.05,17.17,3.15,10.49,4.98,14.94,8.78c4.45,3.8,7.99,8.78,10.62,14.94,2.62,6.16,3.93,12.98,3.93,20.45,0,14.68-4.46,26.48-13.37,35.26-8.91,8.78-20.05,13.24-33.55,13.24l.39,.13Zm93.88,116.21c-5.1,4.98-12.7,7.47-22.79,7.47-3.36,0-6.47-.37-9.46-1.12-2.99-.75-5.48-1.62-7.35-2.61-1.87-.99-3.61-2.24-5.23-3.61s-2.74-2.49-3.36-3.24c-.62-.75-1.25-1.49-1.74-2.11l.25,11.7-16.44,.25v-33.12h17.06v3.36c0,.37,.25,.99,.62,1.87,.37,.87,1.12,2.11,2.24,3.61s2.49,2.86,4.11,4.23c1.62,1.37,3.73,2.49,6.47,3.48,2.74,1,5.73,1.49,9.09,1.49,4.48,0,7.97-.87,10.46-2.61,2.49-1.74,3.74-4.11,3.74-7.1,0-2.36-1.24-4.48-3.74-6.23-2.49-1.74-5.6-3.11-9.46-3.98-3.86-.87-7.97-2.11-12.33-3.61-4.36-1.49-8.47-3.11-12.33-4.86-3.86-1.74-6.97-4.36-9.46-7.85-2.49-3.48-3.73-7.72-3.73-12.57,0-7.59,2.61-13.82,7.97-18.68s12.58-7.35,21.67-7.35c10.08,0,17.68,2.86,22.79,8.47l-.5-7.72h15.44v32.62h-17.18v-4.36c0-2.99-1.49-5.85-4.6-8.72-3.11-2.86-7.6-4.23-13.45-4.23-4.36,0-7.72,.87-10.09,2.74-2.36,1.87-3.61,4.23-3.61,7.1,0,2.61,1.37,4.86,3.98,6.72,2.61,1.87,5.85,3.24,9.71,4.23s8.09,2.24,12.57,3.73c4.48,1.49,8.72,2.99,12.58,4.61,3.86,1.62,7.1,4.11,9.71,7.47,2.61,3.36,3.98,7.47,3.98,12.2,0,7.22-2.49,13.32-7.6,18.3Zm12.34-7.97h10.09l22.91-60.52h-10.21v-14.44h31.75l28.52,74.96h9.96v14.44h-36.85v-14.44h9.84l-4.98-13.7h-29.14l-5.1,13.7h10.08v14.44h-36.85v-14.44h0Zm93.36,130.78c-8.91,8.78-20.05,13.24-33.55,13.24l.39,.13c-13.37,0-24.51-4.59-33.42-13.63-8.91-9.04-13.37-20.71-13.37-34.86,0-7.47,1.31-14.29,3.93-20.45,2.62-6.16,6.16-11.14,10.62-14.94,4.46-3.8,9.43-6.82,14.94-8.91,5.51-2.1,11.27-3.15,17.17-3.15s11.66,1.05,17.17,3.15,10.48,4.98,14.94,8.78c4.46,3.8,7.99,8.78,10.62,14.94,2.62,6.16,3.93,12.98,3.93,20.45,0,14.68-4.46,26.48-13.37,35.26Zm66.07,12.32l-46,.26v-15.21h10.88v-63.7h-10.88v-15.2h45.48c8.52,0,15.33,2.36,20.58,7.21s7.87,11.14,7.87,19-3.41,14.42-10.36,19.27c10.36,3.54,15.47,10.49,15.47,20.84,0,18.35-11.01,27.52-33.03,27.52Zm83.24-78.9h-10.88v63.7h10.88v15.21h-39.58v-15.21h10.88v-63.7h-10.88v-15.2h39.58v15.2Zm84.28,72.08c-5.37,5.24-13.37,7.87-23.98,7.87-3.54,0-6.82-.39-9.96-1.18-3.15-.79-5.77-1.7-7.73-2.75-1.97-1.05-3.8-2.36-5.51-3.8-1.7-1.44-2.88-2.62-3.54-3.41-.65-.79-1.31-1.58-1.83-2.23l.26,12.32-17.3,.26v-34.86h17.96v3.54c0,.39,.26,1.05,.65,1.97,.39,.92,1.18,2.23,2.36,3.8,1.18,1.57,2.62,3.02,4.32,4.46,1.7,1.44,3.93,2.62,6.82,3.67,2.88,1.05,6.03,1.58,9.57,1.58,4.72,0,8.39-.92,11.01-2.75,2.62-1.84,3.93-4.33,3.93-7.47,0-2.49-1.31-4.72-3.93-6.55-2.62-1.84-5.9-3.28-9.96-4.2-4.06-.92-8.39-2.23-12.98-3.8-4.59-1.57-8.91-3.27-12.97-5.11-4.06-1.83-7.34-4.59-9.96-8.26-2.62-3.67-3.93-8.13-3.93-13.24,0-7.99,2.75-14.55,8.39-19.66s13.24-7.73,22.81-7.73c10.62,0,18.61,3.02,23.98,8.91l-.53-8.13h16.26v34.34h-18.09v-4.59c0-3.15-1.57-6.16-4.85-9.17s-7.99-4.46-14.16-4.46c-4.59,0-8.13,.91-10.62,2.88-2.49,1.97-3.8,4.46-3.8,7.47,0,2.75,1.44,5.11,4.2,7.08,2.75,1.97,6.16,3.41,10.22,4.46,4.06,1.05,8.52,2.36,13.24,3.93,4.72,1.58,9.17,3.15,13.24,4.85,4.06,1.7,7.47,4.32,10.22,7.86,2.75,3.54,4.19,7.86,4.19,12.84,0,7.6-2.62,14.02-8,19.27Zm-8.32-129.68c-6.23-5.85-9.34-14.32-9.34-25.4v-41.59h-10.34v-14.44h37.73v14.44h-10.46v41.96c0,5.23,1.37,9.46,4.11,12.82,2.74,3.36,7.34,4.98,13.82,4.98,5.73,0,10.09-1.62,13.08-4.86,2.99-3.24,4.48-7.35,4.48-12.33l-.37-42.46h-10.33v-14.44h37.73v14.44h-10.46v41.59c0,11.08-3.11,19.55-9.21,25.4-6.1,5.85-14.45,8.71-25.03,8.71-10.71,0-19.17-2.99-25.4-8.84Zm95.89,96.26c-6.03,5.37-14.29,8-24.77,8h-14.16v17.04h13.37v15.21l-42.2-.13v-15.21h10.88v-63.7h-10.88v-15.2h44.56c9.44,0,17.17,3.02,23.2,9.04,6.03,6.03,9.04,13.63,9.04,22.94,0,9.31-3.01,16.64-9.04,22.02Zm97.79,27.92c-8.91,8.78-20.05,13.24-33.55,13.24l.39,.13c-13.37,0-24.51-4.59-33.42-13.63-8.91-9.04-13.37-20.71-13.37-34.86,0-7.47,1.31-14.29,3.93-20.45,2.62-6.16,6.16-11.14,10.62-14.94,4.46-3.8,9.43-6.82,14.94-8.91,5.51-2.1,11.27-3.15,17.17-3.15s11.67,1.05,17.17,3.15,10.48,4.98,14.94,8.78c4.45,3.8,7.99,8.78,10.62,14.94,2.62,6.16,3.93,12.98,3.93,20.45,0,14.68-4.46,26.48-13.37,35.26Zm5.77-122.81c-5.1,4.98-12.7,7.47-22.79,7.47-3.36,0-6.47-.37-9.46-1.12-2.99-.75-5.48-1.62-7.35-2.61-1.87-.99-3.61-2.24-5.23-3.61s-2.74-2.49-3.36-3.24c-.62-.75-1.25-1.49-1.74-2.11l.25,11.7-16.44,.25v-33.12h17.06v3.36c0,.37,.25,.99,.62,1.87,.37,.87,1.12,2.11,2.24,3.61s2.49,2.86,4.11,4.23,3.73,2.49,6.47,3.48c2.74,1,5.73,1.49,9.09,1.49,4.48,0,7.97-.87,10.46-2.61,2.49-1.74,3.74-4.11,3.74-7.1,0-2.36-1.24-4.48-3.74-6.23-2.49-1.74-5.6-3.11-9.46-3.98-3.86-.87-7.97-2.11-12.32-3.61-4.36-1.49-8.47-3.11-12.33-4.86-3.86-1.74-6.97-4.36-9.46-7.85-2.49-3.48-3.73-7.72-3.73-12.57,0-7.59,2.61-13.82,7.97-18.68s12.58-7.35,21.67-7.35c10.08,0,17.68,2.86,22.79,8.47l-.5-7.72h15.44v32.62h-17.18v-4.36c0-2.99-1.49-5.85-4.6-8.72-3.11-2.86-7.6-4.23-13.45-4.23-4.36,0-7.72,.87-10.09,2.74-2.36,1.87-3.61,4.23-3.61,7.1,0,2.61,1.37,4.86,3.98,6.72,2.61,1.87,5.85,3.24,9.71,4.23s8.09,2.24,12.57,3.73c4.48,1.49,8.72,2.99,12.58,4.61,3.86,1.62,7.1,4.11,9.71,7.47,2.61,3.36,3.98,7.47,3.98,12.2,0,7.22-2.49,13.32-7.6,18.3Zm-117.72,60.43c-3.28-2.88-7.47-4.33-12.72-4.33h-12.19v32.38l11.79,.13c11.93,0,17.96-5.24,17.96-15.6,0-5.5-1.57-9.7-4.85-12.58Zm78.65-3.15c-7.6,0-14.16,2.75-19.53,8.26-5.37,5.51-8.13,12.97-8.13,22.54s2.75,16.65,8.13,22.54c5.37,5.9,11.93,8.78,19.66,8.78l.13,.13c7.6,0,14.16-2.88,19.53-8.78s8.13-13.37,8.13-22.54-2.75-17.17-8.26-22.67c-5.5-5.5-12.06-8.26-19.66-8.26Z"/>
</svg>