<?xml version="1.0" encoding="utf-8"?>
<!-- Generator: Adobe Illustrator 21.0.2, SVG Export Plug-In . SVG Version: 6.00 Build 0)  -->
<svg version="1.1" id="Layer_1" xmlns="http://www.w3.org/2000/svg" xmlns:xlink="http://www.w3.org/1999/xlink" x="0px" y="0px"
	 viewBox="0 0 1399 879.391" style="enable-background:new 0 0 1399 879.391;" xml:space="preserve">
<style type="text/css">
	.st0{fill:#FFFFFF;}
</style>
<path class="st0" d="M626.74,514.082c-7.601,0-14.155,2.752-19.529,8.257c-5.373,5.505-8.126,12.974-8.126,22.543
	c0,9.175,2.752,16.645,8.126,22.543c5.373,5.898,11.928,8.782,19.66,8.782l0.131,0.131c7.601,0,14.155-2.884,19.529-8.782
	c5.373-5.898,8.126-13.371,8.126-22.543c0-9.569-2.752-17.17-8.257-22.674C640.895,516.835,634.34,514.082,626.74,514.082z
	 M613.491,395.916h-0.749l-9.46,26.893h19.922L613.491,395.916z M731.478,534.529c2.621-1.968,3.93-4.852,3.93-8.651
	c0-4.327-1.309-7.604-4.061-9.7c-2.752-2.096-6.292-3.146-10.619-3.146h-12.056v24.377l12.974,0.131
	C725.58,537.541,728.854,536.494,731.478,534.529z M428.353,420.188c-5.799,0-10.436,1.687-13.915,5.06s-5.271,7.482-5.271,12.225
	c0,4.746,1.792,8.855,5.271,12.229c3.479,3.373,8.116,5.06,13.915,5.06c5.796,0,10.433-1.687,14.018-5.06
	c3.584-3.373,5.377-7.482,5.377-12.437l0.106,0.419c0-4.954-1.792-9.063-5.377-12.437
	C438.892,421.875,434.149,420.188,428.353,420.188z M736.458,554.317c-2.883-2.096-7.079-3.143-12.453-3.143h-15.202v25.817
	l14.808-0.131c5.373,0,9.569-1.178,12.584-3.405c3.015-2.231,4.586-5.505,4.586-9.831
	C740.781,559.563,739.341,556.417,736.458,554.317z M460.32,261.69c-7.601,0-14.152,2.752-19.529,8.257
	c-5.373,5.505-8.126,12.974-8.126,22.543c0,9.175,2.752,16.645,8.126,22.543c5.377,5.898,11.928,8.782,19.66,8.782l0.131,0.131
	c7.604,0,14.155-2.884,19.529-8.782c5.373-5.898,8.126-13.371,8.126-22.543c0-9.569-2.752-17.17-8.257-22.674
	C474.475,264.442,467.924,261.69,460.32,261.69z M1393.638,835.079l-8.347-32.347l-1.439-125.665l-23.936-33.659l-49.617-72.164
	l-53.309-23.35l-21.896-59.727l-51.294-28.171l-17.365-53.915l-88.297-92.635l-62.566-31.884l-55.279-55.712l-25.227-76.134
	L859.071,48.02L857.455,0H0l22.095,90.042l92.654,65.426l115.943,156.681l83.092,65.702l13.585,86.421l-23.262,70.194
	l103.313,83.404l41.291,0.715l24.559,4.167l63.448,102.973l-7.14,101.727l140.369-16.472l122.348,68.412l4.925-2.599l-14.479-55.555
	l23.442-40.81l145.065-62.214l77.5-30.328l115.895,29.055l23.812,12.163l67.52,43.619l56.626,30.778l63.709,42.256l42.691-0.462
	L1393.638,835.079z M966.919,448.833h10.334v-60.516h-10.334v-14.443h37.601v14.443h-10.334v60.516h10.334v14.443h-37.601V448.833z
	 M806.274,245.438h40.5v15.202h-9.175l15.467,27.261h0.653l15.205-27.261h-9.697v-15.202h40.235v15.202h-10.747l-12.584,19.66
	l-10.484,16.645c-2.49,3.933-3.799,6.029-3.93,6.161v21.231h11.272v15.205h-40.5v-15.205h11.14v-21.231
	c-0.131-0.131-1.44-2.227-3.802-6.161l-10.222-16.514l-12.581-19.791h-10.75V245.438z M794.816,388.318v-14.443h37.479v14.443
	h-10.212v60.516h28.64v-13.698h16.063v28.141h-71.97v-14.443h10.334v-60.516H794.816z M714.248,245.438h84.931v29.882h-16.776
	v-14.68h-16.514v63.697h10.616v15.205h-39.32v-15.205h10.878V260.64h-16.907v14.68h-16.907V245.438z M704.07,448.709v14.443h-37.604
	v-14.443h10.334v-60.141h-10.334V373.75h26.771l29.757,46.818c1.12,1.744,2.243,3.735,3.364,5.978
	c1.12,2.24,1.991,3.984,2.615,5.354l0.871,1.991h0.374v-45.573h-10.334v-14.443h37.726v14.443H747.15v74.959l-17.432-0.25
	l-30.631-47.813c-0.87-1.245-1.741-2.615-2.615-4.234c-0.87-1.616-1.495-2.861-1.866-3.86l-0.624-1.37h-0.25v42.958H704.07z
	 M610.032,324.205h10.878v-63.303h-10.878v-15.595h28.179l31.322,49.279c1.181,1.834,2.362,3.933,3.54,6.292
	c1.181,2.359,2.096,4.193,2.752,5.636l0.918,2.096h0.394v-47.97h-10.878v-15.202h39.713v15.202H694.96v78.902l-18.348-0.262
	l-32.244-50.329c-0.915-1.309-1.834-2.752-2.752-4.455c-0.915-1.706-1.571-3.015-1.965-4.064l-0.656-1.44h-0.262v45.215h10.881
	v15.205h-39.582V324.205z M507.65,245.569h39.713v15.202h-11.009v44.168c0,5.505,1.443,9.963,4.327,13.502
	c2.884,3.536,7.732,5.242,14.546,5.242c6.029,0,10.619-1.706,13.765-5.114c3.143-3.405,4.717-7.732,4.717-12.974l-0.394-44.693
	h-10.878v-15.202h39.713v15.202h-11.009v43.774c0,11.665-3.277,20.578-9.7,26.739c-6.423,6.161-15.202,9.175-26.345,9.175
	c-11.268,0-20.181-3.146-26.736-9.307c-6.554-6.161-9.828-15.074-9.828-26.736v-43.778H507.65V245.569z M328.716,327.614
	c-8.913-8.782-13.371-20.575-13.371-35.386c0-7.47,1.312-14.286,3.802-20.447c2.49-6.161,5.898-11.14,10.091-14.939
	c4.196-3.802,9.044-6.817,14.418-8.913c5.373-2.096,11.009-3.146,16.907-3.146c12.059,0,20.841,3.802,26.214,11.534l-0.262-10.747
	h15.989v34.861h-17.954v-3.015c0-3.408-2.099-6.945-6.423-10.484c-4.327-3.54-9.7-5.373-16.12-5.373
	c-7.735,0-14.155,2.752-19.397,8.126c-5.242,5.373-7.867,12.974-7.867,22.674c0,9.566,2.884,17.17,8.519,22.806
	c5.636,5.636,12.321,8.388,19.922,8.388c12.977,0,22.806-6.029,29.491-17.957l12.843,9.175
	c-8.388,17.432-22.937,26.083-43.774,26.083C348.635,340.854,337.626,336.395,328.716,327.614z M382.921,397.762
	c-3.06-2.951-4.641-7.166-4.641-12.542c0-0.951,0.106-1.898,0.211-2.743c0.106-0.842,0.317-1.687,0.634-2.423
	c0.317-0.739,0.63-1.37,0.947-2.003s0.634-1.159,1.056-1.687l0.947-1.264c0.211-0.317,0.528-0.634,0.845-0.951l0.525-0.525
	l5.271,4.004c-1.898,1.898-2.845,4.112-2.845,6.746c0,2.848,0.842,5.06,2.634,6.641c1.792,1.581,4.429,2.32,7.908,2.32h6.43v-14.757
	h7.063v14.757h37.735v-10.542h7.063l-0.106,26.563h-7.063v-7.166h-37.735v7.377h-7.063v-7.377h-6.535
	C390.404,402.192,385.977,400.716,382.921,397.762z M455.128,437.265c0,7.694-2.426,14.018-7.274,18.972
	c-4.849,4.954-11.384,7.38-19.5,7.38c-8.119,0-14.549-2.531-19.292-7.486c-4.743-4.954-7.169-11.172-7.169-18.658
	c0-7.482,2.426-13.701,7.274-18.655c4.849-4.957,11.278-7.486,19.292-7.486c8.116,0,14.651,2.423,19.605,7.38
	c4.954,4.954,7.38,11.278,7.38,18.972L455.128,437.265z M460.451,340.591c-13.368,0-24.508-4.589-33.421-13.63
	c-8.91-9.044-13.368-20.709-13.368-34.865c0-7.47,1.312-14.286,3.933-20.447c2.621-6.161,6.161-11.14,10.616-14.939
	c4.455-3.802,9.438-6.817,14.942-8.913c5.505-2.096,11.272-3.146,17.167-3.146c5.898,0,11.665,1.05,17.17,3.146
	c5.505,2.096,10.488,4.98,14.942,8.782c4.455,3.799,7.994,8.782,10.616,14.939c2.621,6.161,3.933,12.977,3.933,20.447
	c0,14.68-4.458,26.477-13.368,35.255c-8.913,8.782-20.053,13.24-33.552,13.24L460.451,340.591z M554.332,456.802
	c-5.105,4.98-12.699,7.47-22.786,7.47c-3.36,0-6.474-0.371-9.46-1.12c-2.989-0.746-5.479-1.619-7.348-2.615
	c-1.869-0.995-3.61-2.24-5.229-3.61s-2.74-2.49-3.36-3.239c-0.624-0.746-1.248-1.495-1.744-2.115l0.25,11.704l-16.437,0.25v-33.12
	h17.058v3.36c0,0.374,0.25,0.995,0.624,1.869c0.371,0.87,1.12,2.115,2.24,3.61s2.49,2.864,4.109,4.234s3.735,2.49,6.474,3.485
	c2.74,0.999,5.729,1.495,9.089,1.495c4.484,0,7.969-0.87,10.459-2.615c2.493-1.744,3.738-4.109,3.738-7.098
	c0-2.365-1.245-4.48-3.738-6.225c-2.49-1.744-5.601-3.114-9.463-3.984c-3.86-0.87-7.969-2.115-12.325-3.61
	c-4.359-1.495-8.468-3.114-12.328-4.855c-3.86-1.744-6.974-4.359-9.463-7.847c-2.49-3.485-3.735-7.719-3.735-12.574
	c0-7.594,2.615-13.822,7.969-18.677s12.577-7.348,21.666-7.348c10.084,0,17.679,2.864,22.786,8.468l-0.499-7.719h15.438v32.621
	h-17.183v-4.356c0-2.989-1.495-5.853-4.605-8.718c-3.114-2.864-7.598-4.234-13.448-4.234c-4.359,0-7.719,0.874-10.088,2.74
	c-2.365,1.869-3.61,4.234-3.61,7.098c0,2.615,1.37,4.855,3.984,6.724c2.615,1.869,5.853,3.239,9.713,4.234
	c3.86,0.995,8.094,2.24,12.574,3.735c4.484,1.495,8.718,2.989,12.577,4.605c3.86,1.619,7.098,4.109,9.713,7.473
	c2.615,3.36,3.984,7.47,3.984,12.203C561.93,445.72,559.437,451.823,554.332,456.802z M566.673,448.833h10.088l22.908-60.516
	h-10.209v-14.443h31.751l28.515,74.959h9.96v14.443h-36.855v-14.443h9.835l-4.98-13.698h-29.136l-5.105,13.698h10.084v14.443
	h-36.855V448.833z M660.03,579.613c-8.913,8.782-20.053,13.24-33.552,13.24l0.394,0.131c-13.368,0-24.508-4.589-33.421-13.63
	c-8.913-9.044-13.368-20.709-13.368-34.865c0-7.47,1.309-14.286,3.93-20.447c2.624-6.161,6.161-11.14,10.619-14.939
	c4.455-3.802,9.435-6.817,14.939-8.913c5.505-2.096,11.272-3.146,17.17-3.146s11.665,1.05,17.17,3.146
	c5.505,2.096,10.484,4.98,14.942,8.782c4.455,3.799,7.995,8.782,10.616,14.939c2.621,6.161,3.933,12.977,3.933,20.447
	C673.401,559.038,668.943,570.834,660.03,579.613z M726.101,591.934l-46.002,0.262v-15.205h10.878v-63.697H680.1v-15.202h45.48
	c8.519,0,15.333,2.359,20.575,7.207s7.866,11.14,7.866,19.004c0,7.994-3.408,14.418-10.356,19.266
	c10.356,3.54,15.467,10.488,15.467,20.841C759.132,582.759,748.123,591.934,726.101,591.934z M809.343,513.033h-10.878v63.697
	h10.878v15.205h-39.582v-15.205h10.878v-63.697h-10.878v-15.202h39.582V513.033z M893.627,585.117
	c-5.373,5.245-13.368,7.866-23.983,7.866c-3.54,0-6.817-0.394-9.963-1.181c-3.146-0.787-5.767-1.703-7.732-2.752
	c-1.965-1.05-3.802-2.359-5.505-3.802c-1.703-1.44-2.884-2.621-3.54-3.405c-0.653-0.787-1.309-1.575-1.834-2.231l0.262,12.321
	l-17.301,0.262v-34.865h17.957v3.54c0,0.394,0.262,1.05,0.653,1.965c0.394,0.919,1.181,2.231,2.362,3.802
	c1.178,1.571,2.621,3.015,4.324,4.455c1.703,1.443,3.933,2.624,6.817,3.671c2.884,1.05,6.026,1.575,9.566,1.575
	c4.717,0,8.388-0.919,11.009-2.752c2.621-1.837,3.933-4.327,3.933-7.473c0-2.49-1.312-4.717-3.933-6.551
	c-2.621-1.837-5.898-3.277-9.959-4.196c-4.064-0.919-8.388-2.227-12.977-3.802c-4.586-1.571-8.91-3.274-12.974-5.111
	c-4.064-1.834-7.338-4.586-9.96-8.257c-2.621-3.668-3.933-8.126-3.933-13.237c0-7.995,2.752-14.549,8.388-19.66
	s13.237-7.732,22.806-7.732c10.616,0,18.61,3.015,23.983,8.913l-0.525-8.129h16.255v34.34h-18.088v-4.586
	c0-3.146-1.571-6.161-4.849-9.175s-7.994-4.455-14.155-4.455c-4.586,0-8.126,0.915-10.616,2.884c-2.49,1.965-3.802,4.455-3.802,7.47
	c0,2.752,1.443,5.111,4.196,7.076c2.752,1.968,6.157,3.408,10.222,4.458c4.061,1.047,8.519,2.359,13.237,3.93
	c4.717,1.575,9.175,3.146,13.237,4.852c4.064,1.703,7.473,4.324,10.225,7.863c2.752,3.54,4.193,7.863,4.193,12.843
	C901.621,573.455,899,579.875,893.627,585.117z M885.307,455.433c-6.228-5.853-9.339-14.318-9.339-25.401v-41.589h-10.337V374
	h37.729v14.443h-10.459v41.963c0,5.229,1.37,9.463,4.109,12.824c2.74,3.364,7.345,4.98,13.819,4.98
	c5.729,0,10.088-1.616,13.077-4.855c2.986-3.239,4.481-7.345,4.481-12.328l-0.374-42.459h-10.334v-14.443h37.729v14.443h-10.459
	v41.589c0,11.083-3.114,19.548-9.214,25.401c-6.103,5.85-14.446,8.715-25.03,8.715C900,464.272,891.532,461.283,885.307,455.433z
	 M981.195,551.696c-6.029,5.373-14.286,7.998-24.771,7.998h-14.155v17.036h13.368v15.205l-42.203-0.131v-15.205h10.878v-63.697
	h-10.878V497.7h44.562c9.438,0,17.17,3.015,23.199,9.041c6.029,6.029,9.041,13.633,9.041,22.937
	C990.236,538.984,987.224,546.323,981.195,551.696z M1078.981,579.613c-8.913,8.782-20.053,13.24-33.552,13.24l0.394,0.131
	c-13.368,0-24.508-4.589-33.421-13.63c-8.913-9.044-13.368-20.709-13.368-34.865c0-7.47,1.309-14.286,3.93-20.447
	c2.624-6.161,6.161-11.14,10.619-14.939c4.455-3.802,9.435-6.817,14.939-8.913c5.505-2.096,11.272-3.146,17.17-3.146
	c5.898,0,11.665,1.05,17.17,3.146s10.484,4.98,14.942,8.782c4.455,3.799,7.995,8.782,10.616,14.939
	c2.621,6.161,3.933,12.977,3.933,20.447C1092.353,559.038,1087.895,570.834,1078.981,579.613z M1084.755,456.802
	c-5.104,4.98-12.699,7.47-22.786,7.47c-3.36,0-6.474-0.371-9.46-1.12c-2.989-0.746-5.479-1.619-7.348-2.615
	c-1.869-0.995-3.61-2.24-5.229-3.61s-2.74-2.49-3.36-3.239c-0.624-0.746-1.248-1.495-1.744-2.115l0.25,11.704l-16.437,0.25v-33.12
	h17.058v3.36c0,0.374,0.25,0.995,0.624,1.869c0.371,0.87,1.12,2.115,2.24,3.61s2.49,2.864,4.109,4.234s3.735,2.49,6.474,3.485
	c2.74,0.999,5.729,1.495,9.089,1.495c4.484,0,7.969-0.87,10.459-2.615c2.493-1.744,3.738-4.109,3.738-7.098
	c0-2.365-1.245-4.48-3.738-6.225c-2.49-1.744-5.601-3.114-9.463-3.984c-3.86-0.87-7.969-2.115-12.325-3.61
	c-4.359-1.495-8.468-3.114-12.328-4.855c-3.86-1.744-6.974-4.359-9.464-7.847c-2.49-3.485-3.735-7.719-3.735-12.574
	c0-7.594,2.615-13.822,7.969-18.677c5.354-4.855,12.577-7.348,21.667-7.348c10.084,0,17.679,2.864,22.786,8.468l-0.499-7.719h15.438
	v32.621h-17.183v-4.356c0-2.989-1.495-5.853-4.605-8.718c-3.114-2.864-7.598-4.234-13.448-4.234c-4.359,0-7.719,0.874-10.087,2.74
	c-2.365,1.869-3.61,4.234-3.61,7.098c0,2.615,1.37,4.855,3.984,6.724c2.615,1.869,5.853,3.239,9.713,4.234
	c3.86,0.995,8.094,2.24,12.574,3.735c4.484,1.495,8.718,2.989,12.577,4.605c3.86,1.619,7.098,4.109,9.713,7.473
	c2.615,3.36,3.984,7.47,3.984,12.203C1092.353,445.72,1089.859,451.823,1084.755,456.802z M967.04,517.228
	c-3.277-2.884-7.473-4.327-12.715-4.327h-12.187v32.375l11.793,0.131c11.928,0,17.957-5.242,17.957-15.599
	C971.888,524.304,970.317,520.112,967.04,517.228z M1045.691,514.082c-7.601,0-14.155,2.752-19.529,8.257
	c-5.373,5.505-8.126,12.974-8.126,22.543c0,9.175,2.752,16.645,8.126,22.543c5.373,5.898,11.928,8.782,19.66,8.782l0.131,0.131
	c7.601,0,14.155-2.884,19.529-8.782s8.126-13.371,8.126-22.543c0-9.569-2.752-17.17-8.257-22.674
	C1059.847,516.835,1053.292,514.082,1045.691,514.082z"/>
</svg>
